Coordinates
version=1
nRows=23
nColumns=30
inDegrees=yes

Units are S.I. units (second, meters, Newtons, ...)
Angles are in degrees.

endheader
time	floatyaw	floatroll	floatpitch	floatx	floaty	floatz	pro_sup_l	deviation_l	flexion_l	cmc_flexion_l	cmc_abduction_l	mp_flexion_l	ip_flexion_l	2mcp_flexion_l	2mcp_abduction_l	2pm_flexion_l	2md_flexion_l	3mcp_flexion_l	3mcp_abduction_l	3pm_flexion_l	3md_flexion_l	4mcp_flexion_l	4mcp_abduction_l	4pm_flexion_l	4md_flexion_l	5mcp_flexion_l	5mcp_abduction_l	5pm_flexion_l	5md_flexion_l
-1.495000	-160.147433	-5.066637	-73.570646	0.082069	-0.182827	-0.015187	101.579498	3.388605	-1.349572	15.681413	4.112010	-25.953145	-42.048909	31.178345	6.580849	42.199462	28.789527	25.022980	4.052404	44.224634	29.130048	13.558036	-4.375959	52.615924	36.593403	0.455173	-7.576672	63.546740	43.323374
-1.485000	-160.147433	-5.066637	-73.570646	0.082069	-0.182829	-0.015194	101.586040	3.386198	-1.351064	15.671017	4.119162	-25.971881	-42.056656	31.201055	6.572586	42.208390	28.789072	25.017044	4.056080	44.226003	29.129519	13.558385	-4.374036	52.613962	36.588763	0.455866	-7.586754	63.569100	43.333775
-1.475000	-160.147433	-5.066637	-73.570646	0.082069	-0.182831	-0.015199	101.589790	3.385017	-1.350009	15.655247	4.119669	-25.979805	-42.053690	31.226388	6.562930	42.211886	28.790464	25.002073	4.059063	44.237722	29.139098	13.557074	-4.370053	52.603594	36.582245	0.452479	-7.599900	63.593066	43.346452
-1.465000	-160.147433	-5.066637	-73.570646	0.082070	-0.182830	-0.015197	101.593657	3.387962	-1.344654	15.634072	4.117994	-25.974794	-42.035946	31.249323	6.554958	42.209224	28.795247	24.979173	4.060935	44.258890	29.158893	13.552535	-4.364827	52.589740	36.577388	0.445161	-7.613772	63.615154	43.359717
-1.455000	-160.147433	-5.066637	-73.570646	0.082071	-0.182825	-0.015189	101.600629	3.397453	-1.334610	15.608935	4.119449	-25.960041	-42.006767	31.265737	6.550832	42.198501	28.801557	24.952922	4.061890	44.282844	29.183449	13.543009	-4.359539	52.578565	36.577549	0.435128	-7.626643	63.632810	43.372243
-1.445000	-160.147433	-5.066637	-73.570646	0.082073	-0.182814	-0.015173	101.611657	3.413697	-1.321172	15.582139	4.128110	-25.942270	-41.975200	31.274102	6.550985	42.178351	28.805165	24.929912	4.062560	44.299559	29.203706	13.527504	-4.355219	52.574622	36.584291	0.424482	-7.637968	63.644934	43.383063
-1.435000	-160.147433	-5.066637	-73.570646	0.082075	-0.182802	-0.015154	101.624701	3.433895	-1.307113	15.555667	4.145538	-25.928438	-41.951212	31.276285	6.553998	42.150329	28.802047	24.916126	4.063576	44.300325	29.211135	13.506769	-4.352377	52.578933	36.596524	0.415485	-7.648054	63.651856	43.391428
-1.425000	-160.147433	-5.066637	-73.570646	0.082077	-0.182792	-0.015137	101.635783	3.453197	-1.295835	15.530619	4.170657	-25.923005	-41.941354	31.276753	6.557268	42.119722	28.790656	24.914172	4.065153	44.282307	29.201951	13.483528	-4.350937	52.588895	36.610874	0.409757	-7.657301	63.654687	43.396580
-1.415000	-160.147433	-5.066637	-73.570646	0.082078	-0.182787	-0.015127	101.641450	3.466982	-1.290027	15.507701	4.200536	-25.927170	-41.947312	31.280214	6.558237	42.093839	28.772648	24.921771	4.067005	44.250385	29.179098	13.461547	-4.350459	52.599975	36.623206	0.407815	-7.665587	63.654213	43.397597
-1.405000	-160.147433	-5.066637	-73.570646	0.082079	-0.182788	-0.015127	101.640946	3.473110	-1.290370	15.487944	4.231432	-25.939846	-41.967032	31.288750	6.555706	42.078777	28.752053	24.932567	4.068575	44.215148	29.150983	13.443897	-4.350486	52.608252	36.630599	0.408932	-7.672134	63.650124	43.393602
-1.395000	-160.147433	-5.066637	-73.570646	0.082079	-0.182794	-0.015139	101.636628	3.472726	-1.295048	15.472484	4.259622	-25.959107	-41.996463	31.300265	6.550520	42.076658	28.733633	24.938953	4.069369	44.188273	29.127784	13.431471	-4.350832	52.612411	36.632684	0.411029	-7.675862	63.641368	43.384523
-1.385000	-160.147433	-5.066637	-73.570646	0.082077	-0.182800	-0.015158	101.632440	3.469264	-1.300481	15.461355	4.281917	-25.983003	-42.030670	31.309559	6.545153	42.084778	28.721165	24.935367	4.069215	44.177875	29.117358	13.422664	-4.351590	52.614065	36.631600	0.410742	-7.676028	63.627497	43.371930
-1.375000	-160.147433	-5.066637	-73.570646	0.082075	-0.182804	-0.015182	101.631603	3.466454	-1.302956	15.452515	4.296035	-26.009502	-42.064484	31.311531	6.542290	42.097008	28.716236	24.920303	4.068397	44.185834	29.122536	13.414441	-4.352934	52.616335	36.630633	0.404234	-7.672755	63.609772	43.359085
-1.365000	-160.147433	-5.066637	-73.570646	0.082072	-0.182803	-0.015205	101.635071	3.466661	-1.300321	15.442338	4.300986	-26.036016	-42.093259	31.304446	6.543253	42.106800	28.718001	24.896310	4.067689	44.207719	29.140619	13.404146	-4.354905	52.621770	36.632406	0.388963	-7.667168	63.591024	43.349773
-1.355000	-160.147433	-5.066637	-73.570646	0.082069	-0.182799	-0.015223	101.641426	3.470306	-1.292918	15.427441	4.297466	-26.059095	-42.113628	31.291182	6.547258	42.110352	28.724016	24.868497	4.068222	44.234888	29.164924	13.391027	-4.357403	52.630982	36.637691	0.365458	-7.661060	63.574474	43.346577
-1.345000	-160.147433	-5.066637	-73.570646	0.082068	-0.182794	-0.015234	101.647859	3.476315	-1.283295	15.406499	4.287842	-26.074779	-42.123788	31.277762	6.551908	42.108233	28.731648	24.842507	4.071068	44.257843	29.187651	13.376528	-4.360314	52.642708	36.645426	0.337600	-7.656263	63.562443	43.349801
-1.335000	-160.147433	-5.066637	-73.570646	0.082070	-0.182791	-0.015239	101.651514	3.483057	-1.274859	15.380838	4.275279	-26.079716	-42.123314	31.270136	6.554570	42.104426	28.739180	24.822732	4.076625	44.269655	29.202928	13.363174	-4.363603	52.655015	36.653790	0.310876	-7.653996	63.555690	43.357692
-1.325000	-160.147433	-5.066637	-73.570646	0.082074	-0.182793	-0.015240	101.650711	3.489263	-1.270166	15.353660	4.262215	-26.072651	-42.113045	31.271131	6.553851	42.103475	28.745991	24.811241	4.084166	44.268349	29.208862	13.352855	-4.367223	52.666752	36.661540	0.289874	-7.654501	63.553616	43.367614
-1.315000	-160.147433	-5.066637	-73.570646	0.082080	-0.182799	-0.015237	101.645648	3.494580	-1.269716	15.328557	4.249323	-26.055395	-42.095312	31.279310	6.550436	42.107638	28.751975	24.807634	4.091925	44.257470	29.207825	13.345678	-4.370856	52.678333	36.668749	0.276785	-7.657243	63.555231	43.377335
-1.305000	-160.147433	-5.066637	-73.570646	0.082085	-0.182807	-0.015234	101.638111	3.499601	-1.271822	15.308033	4.235990	-26.032484	-42.073965	31.290263	6.546851	42.115767	28.756857	24.809732	4.097759	44.244573	29.204979	13.340025	-4.373736	52.691290	36.676482	0.271521	-7.661583	63.560249	43.385754
-1.295000	-160.147433	-5.066637	-73.570646	0.082088	-0.182815	-0.015230	101.630139	3.505408	-1.273538	15.292493	4.222232	-26.009445	-42.053425	31.299248	6.546221	42.124402	28.760140	24.814625	4.100040	44.238210	29.205861	13.333672	-4.374809	52.706779	36.685695	0.272734	-7.667438	63.569238	43.392806
-1.285000	-160.147433	-5.066637	-73.570646	0.082086	-0.182818	-0.015225	101.622440	3.512913	-1.272104	15.280032	4.210586	-25.990607	-42.036936	31.303457	6.550643	42.130194	28.761764	24.819528	4.098349	44.244561	29.214115	13.325303	-4.373265	52.724058	36.696173	0.278780	-7.675319	63.582305	43.398710
-1.275000	-160.147433	-5.066637	-73.570646	0.082082	-0.182814	-0.015216	101.613805	3.522359	-1.266114	15.267218	4.206177	-25.977821	-42.025297	31.302772	6.560048	42.131947	28.762746	24.822283	4.093674	44.264891	29.230119	13.315537	-4.369130	52.740045	36.706246	0.288213	-7.685635	63.597284	43.403172
